<svg xmlns="http://www.w3.org/2000/svg" width="24" height="24" viewBox="0 0 24 24" fill="none">
  <g clip-path="url(#clip0_136_1)">
    <path d="M19.0953 14.6096L17.7486 7.0075C17.6297 6.24094 16.968 5.6766 16.1923 5.67972H14.7202V4.28935C14.7202 1.92041 12.7998 0 10.4309 0C8.06193 0 6.14152 1.92041 6.14152 4.28935V5.67972H4.66965C3.89395 5.67638 3.23229 6.24094 3.11314 7.0075L0.915904 19.4123C0.911672 19.4355 0.909668 19.4587 0.909668 19.482C0.91145 21.0018 2.14302 22.2334 3.66301 22.2352H14.7331C16.0576 23.8845 18.3174 24.4513 20.2632 23.6224C22.2092 22.7935 23.3662 20.7711 23.0943 18.6734C22.8226 16.5759 21.1883 14.9152 19.0953 14.6096ZM6.93971 4.28935C6.93971 2.36115 8.50289 0.798185 10.4309 0.798185C12.3591 0.798185 13.922 2.36115 13.922 4.28935V5.67972H6.93971V4.28935ZM1.7083 19.5154L3.89974 7.14291C3.90019 7.14046 3.90064 7.13779 3.90108 7.13534C3.95898 6.75607 4.28592 6.47635 4.66965 6.47791H6.14152V8.64641C6.14152 8.86689 6.32036 9.0455 6.54062 9.0455C6.7611 9.0455 6.93971 8.86689 6.93971 8.64641V6.47791H13.922V8.64641C13.922 8.86689 14.1007 9.0455 14.3211 9.0455C14.5416 9.0455 14.7202 8.86689 14.7202 8.64641V6.47791H16.1923C16.5758 6.47635 16.903 6.75607 16.9607 7.13534C16.9611 7.13779 16.9616 7.14046 16.962 7.14291L18.2764 14.5629C16.6567 14.6101 15.1743 15.4847 14.3496 16.8797C13.5252 18.2747 13.4735 19.9952 14.2131 21.437H3.66323C2.5969 21.4359 1.72767 20.5816 1.7083 19.5154ZM18.4132 23.2015C17.1649 23.1986 15.9917 22.6046 15.2509 21.5998C14.377 20.4081 14.2472 18.8262 14.9149 17.508C15.5828 16.1895 16.9348 15.3584 18.4127 15.3579C18.5158 15.3579 18.6203 15.3619 18.723 15.37C20.822 15.5366 22.4148 17.3309 22.3315 19.4348C22.2482 21.5388 20.5184 23.2015 18.4127 23.2017L18.4132 23.2015Z" fill="#EC088D"/>
    <path d="M18.4124 17.3722C18.8215 17.3726 19.1531 17.7042 19.1536 18.1133C19.1536 18.3338 19.3324 18.5124 19.5527 18.5124C19.7732 18.5124 19.9518 18.3338 19.9518 18.1133C19.9509 17.4172 19.4836 16.8081 18.8115 16.6268V16.3466C18.8115 16.1261 18.6329 15.9475 18.4124 15.9475C18.1921 15.9475 18.0133 16.1261 18.0133 16.3466V16.6268C17.2677 16.8272 16.786 17.5492 16.8869 18.3147C16.988 19.0801 17.6403 19.6525 18.4124 19.6527C18.8153 19.6596 19.1389 19.9868 19.1411 20.3896C19.1433 20.7925 18.8233 21.1232 18.4206 21.1346C18.418 21.1346 18.4151 21.1342 18.4124 21.1342C18.41 21.1342 18.4068 21.1346 18.4042 21.1346C17.9984 21.1297 17.6719 20.7997 17.6712 20.3939C17.6712 20.1734 17.4926 19.9948 17.2721 19.9948C17.0519 19.9948 16.873 20.1734 16.873 20.3939C16.8742 21.0901 17.3412 21.6992 18.0133 21.8805V22.2125C18.0133 22.433 18.1921 22.6116 18.4124 22.6116C18.6329 22.6116 18.8115 22.433 18.8115 22.2125V21.8802C19.5573 21.6798 20.0393 20.958 19.9382 20.1923C19.8373 19.4269 19.1848 18.8545 18.4124 18.8543C18.0031 18.8543 17.6712 18.5225 17.6712 18.1131C17.6712 17.7038 18.0031 17.372 18.4124 17.372V17.3722Z" fill="#EC088D"/>
  </g>
  <defs>
    <clipPath id="clip0_136_1">
      <rect width="24" height="24" fill="white"/>
    </clipPath>
  </defs>
</svg>