<svg xmlns="http://www.w3.org/2000/svg" width="24" height="24" viewBox="0 0 24 24" fill="none">
  <g clip-path="url(#clip0_135_313)">
    <path d="M16.5 20H1.326C0.595 20 0 19.405 0 18.674V6.5C0 6.224 0.224 6 0.5 6H19.5C19.776 6 20 6.224 20 6.5V10.5C20 10.776 19.776 11 19.5 11C19.224 11 19 10.776 19 10.5V7H1V18.674C1 18.854 1.146 19 1.326 19H16.5C16.776 19 17 19.224 17 19.5C17 19.776 16.776 20 16.5 20Z" fill="white"/>
    <path d="M19.5 7C19.324 7 19.153 6.907 19.062 6.741L16.042 1.259C15.955 1.099 15.787 1 15.604 1H4.39599C4.21299 1 4.04499 1.099 3.95799 1.259L0.937994 6.741C0.804994 6.984 0.498994 7.069 0.258994 6.938C0.0169936 6.805 -0.0710064 6.5 0.0619936 6.259L3.08199 0.777C3.34499 0.297 3.84899 0 4.39599 0H15.605C16.152 0 16.656 0.297 16.919 0.776L19.938 6.258C20.072 6.5 19.984 6.804 19.742 6.937C19.665 6.98 19.582 7 19.5 7Z" fill="white"/>
    <path d="M10 7C9.724 7 9.5 6.776 9.5 6.5V0.5C9.5 0.224 9.724 0 10 0C10.276 0 10.5 0.224 10.5 0.5V6.5C10.5 6.776 10.276 7 10 7Z" fill="white"/>
    <path d="M23.5 24C23.224 24 23 23.776 23 23.5V21.5C23 18.467 20.532 16 17.5 16H15.5C15.224 16 15 15.776 15 15.5C15 15.224 15.224 15 15.5 15H17.5C21.084 15 24 17.916 24 21.5V23.5C24 23.776 23.776 24 23.5 24Z" fill="white"/>
    <path d="M19 19C18.885 19 18.769 18.96 18.675 18.879L15.175 15.879C15.063 15.785 15 15.646 15 15.5C15 15.354 15.063 15.215 15.175 15.121L18.675 12.121C18.884 11.942 19.198 11.965 19.38 12.175C19.56 12.384 19.535 12.7 19.325 12.88L16.269 15.5L19.326 18.121C19.536 18.301 19.56 18.616 19.381 18.826C19.28 18.941 19.141 19 19 19Z" fill="white"/>
  </g>
  <defs>
    <clipPath id="clip0_135_313">
      <rect width="24" height="24" fill="white"/>
    </clipPath>
  </defs>
</svg>