<svg xmlns="http://www.w3.org/2000/svg" width="24" height="24" viewBox="0 0 24 24" fill="none">
  <g clip-path="url(#clip0_136_2)">
    <path d="M7.5 20H22.674C23.405 20 24 19.405 24 18.674V6.5C24 6.224 23.776 6 23.5 6H4.5C4.224 6 4 6.224 4 6.5V10.5C4 10.776 4.224 11 4.5 11C4.776 11 5 10.776 5 10.5V7H23V18.674C23 18.854 22.854 19 22.674 19H7.5C7.224 19 7 19.224 7 19.5C7 19.776 7.224 20 7.5 20Z" fill="#EC088D"/>
    <path d="M4.50001 7C4.67601 7 4.84701 6.907 4.93801 6.741L7.95801 1.259C8.04501 1.099 8.21301 1 8.39601 1H19.604C19.787 1 19.955 1.099 20.042 1.259L23.062 6.741C23.195 6.984 23.501 7.069 23.741 6.938C23.983 6.805 24.071 6.5 23.938 6.259L20.918 0.777C20.655 0.297 20.151 0 19.604 0H8.39501C7.84801 0 7.34401 0.297 7.08101 0.776L4.06201 6.258C3.92801 6.5 4.016 6.804 4.25801 6.937C4.335 6.98 4.418 7 4.50001 7Z" fill="#EC088D"/>
    <path d="M14 7C14.276 7 14.5 6.776 14.5 6.5V0.5C14.5 0.224 14.276 0 14 0C13.724 0 13.5 0.224 13.5 0.5V6.5C13.5 6.776 13.724 7 14 7Z" fill="#EC088D"/>
    <path d="M0.5 24C0.776 24 1 23.776 1 23.5V21.5C1 18.467 3.468 16 6.5 16H8.5C8.776 16 9 15.776 9 15.5C9 15.224 8.776 15 8.5 15H6.5C2.916 15 0 17.916 0 21.5V23.5C0 23.776 0.224 24 0.5 24Z" fill="#EC088D"/>
    <path d="M5.00001 19C5.11501 19 5.23101 18.96 5.32501 18.879L8.825 15.879C8.937 15.785 9 15.646 9 15.5C9 15.354 8.937 15.215 8.825 15.121L5.32501 12.121C5.11601 11.942 4.80202 11.965 4.62002 12.175C4.44002 12.384 4.46501 12.7 4.67501 12.88L7.73101 15.5L4.67401 18.121C4.46402 18.301 4.44001 18.616 4.61901 18.826C4.72001 18.941 4.85901 19 5.00001 19Z" fill="#EC088D"/>
  </g>
  <defs>
    <clipPath id="clip0_136_2">
      <rect width="24" height="24" fill="white" transform="matrix(-1 0 0 1 24 0)"/>
    </clipPath>
  </defs>
</svg>