<svg xmlns="http://www.w3.org/2000/svg" width="21" height="24" viewBox="0 0 21 24" fill="none">
  <path d="M14.6692 12.3321V8.948C14.6692 8.68911 14.4156 8.47925 14.1028 8.47925H9.46592C9.1531 8.47925 8.89952 8.68911 8.89952 8.948V12.3321H6.55284C6.09394 12.326 5.81849 12.7826 6.1 13.0824L11.3315 18.8444C11.5434 19.0912 12.0252 19.0912 12.2371 18.8444L17.4686 13.0824C17.5975 12.9404 17.6184 12.7503 17.5225 12.5914C17.4267 12.4325 17.2304 12.332 17.0158 12.332H14.6692V12.3321ZM11.7843 17.7825L7.6869 13.2696H9.46587C9.77869 13.2696 10.0323 13.0597 10.0323 12.8008V9.41675H13.5363V12.8008C13.5363 13.0597 13.7899 13.2696 14.1028 13.2696H15.8817L11.7843 17.7825Z" fill="#EC088D"/>
  <path d="M19.8458 3.32119H16.3607C16.183 1.46541 14.3027 0 12.0154 0H11.9214C11.4238 0 10.9459 0.0702656 10.5001 0.197906C10.0542 0.0702656 9.57637 0 9.07872 0H8.9847C6.69738 0 4.81713 1.46541 4.6394 3.32119H1.1543C0.841471 3.32119 0.587891 3.53105 0.587891 3.78994V22.4896C0.587891 23.3225 1.40669 24 2.41308 24H18.5872C19.5935 24 20.4123 23.3225 20.4123 22.4896V3.78994C20.4122 3.53105 20.1586 3.32119 19.8458 3.32119ZM12.0154 0.9375C13.6778 0.9375 15.0502 1.983 15.2241 3.32119H13.4241C13.3338 2.37923 12.806 1.53764 12.0076 0.9375H12.0154ZM10.5001 1.2112C11.4701 1.60669 12.1668 2.39344 12.2874 3.32119H8.71276C8.8333 2.39344 9.52998 1.60669 10.5001 1.2112ZM8.9847 0.9375H8.99257C8.19416 1.53764 7.66627 2.37923 7.5761 3.32119H5.77612C5.94989 1.983 7.32235 0.9375 8.9847 0.9375ZM1.7207 22.4896V4.25869H3.15598V23.0625H2.41302C2.03126 23.0625 1.7207 22.8055 1.7207 22.4896ZM8.10105 23.0625V21.1546H15.4673V23.0625H8.10105ZM19.2794 22.4896C19.2794 22.8055 18.9689 23.0625 18.587 23.0625H16.6V20.6858C16.6 20.427 16.3464 20.2171 16.0336 20.2171H7.53464C7.22181 20.2171 6.96823 20.427 6.96823 20.6858V23.0625H4.28879V4.25869H7.56098V5.83148H7.23076C6.47925 5.85623 6.47982 6.74447 7.23076 6.76898H9.024C9.77551 6.74423 9.77495 5.856 9.024 5.83148H8.69379V4.25869H15.243V5.83148H14.9128C14.1613 5.85623 14.1618 6.74447 14.9128 6.76898H16.706C17.4575 6.74423 17.4569 5.856 16.706 5.83148H16.3758V4.25869H19.2794V22.4896Z" fill="#EC088D"/>
</svg>