<svg xmlns="http://www.w3.org/2000/svg" width="24" height="19" viewBox="0 0 24 19" fill="none">
<path d="M6.50869 15.8166C8.75179 13.0847 10.481 10.4014 12.3458 8.11645C14.2105 5.83151 16.3967 4.46557 18.4958 4.23623C20.595 4.0069 21.7852 4.70494 22.6154 5.49505C23.4457 6.28515 23.8408 4.78027 23.8826 3.96338C23.9245 3.14649 24.0266 1.02727 21.1775 0.131707C18.3285 -0.763856 14.0867 3.12975 12.3056 5.10334C10.4642 7.13049 7.29712 11.7456 6.11197 13.0328C4.92681 14.3201 3.24114 15.0115 2.47447 13.9368C1.7078 12.8621 1.88692 10.5035 2.32549 9.05386C2.76407 7.60422 3.12229 6.47431 3.54245 5.81979C3.81866 5.38791 3.43365 5.2021 3.43365 5.2021C3.43365 5.2021 3.16414 4.98951 2.82433 5.50676C1.91594 7.00451 1.19147 8.60632 0.666607 10.2775C-0.0146907 12.5139 -0.404721 14.6817 0.658237 16.908C1.7212 19.1344 4.2656 18.5468 6.50869 15.8166Z" fill="#E8158D"/>
<path d="M21.904 13.3911C22.6322 13.3091 23.0456 13.5585 23.3335 13.828C23.6215 14.0975 23.814 13.6037 23.8357 13.3258C23.869 13.0117 23.7878 12.6962 23.6069 12.4372C23.4261 12.1782 23.1578 11.9933 22.8514 11.9164C21.8588 11.605 20.4376 12.8621 19.7379 13.6573C19.1118 14.372 18.002 15.9774 17.5936 16.4243C17.1851 16.8713 16.5758 17.0939 16.3649 16.6821C16.1322 16.2335 16.1975 15.6242 16.3481 15.1203C16.4578 14.7158 16.6075 14.3233 16.7951 13.9485C16.8126 13.9267 16.8249 13.9012 16.831 13.8739C16.837 13.8465 16.8367 13.8182 16.8301 13.791C16.8235 13.7638 16.8107 13.7385 16.7927 13.7171C16.7747 13.6956 16.7521 13.6786 16.7265 13.6673C16.7265 13.6673 16.5858 13.6338 16.4687 13.8347C16.1569 14.357 15.9054 14.913 15.7187 15.4919C15.481 16.2686 15.3471 17.0202 15.7187 17.7936C16.0904 18.567 17.0244 18.3711 17.8028 17.422C18.5812 16.4729 19.1219 15.5907 19.7697 14.7956C20.4175 14.0004 21.1741 13.4715 21.904 13.3911Z" fill="#E8158D"/>
<path d="M11.534 10.6106C11.6797 10.3294 11.4671 10.229 11.4671 10.229C11.4671 10.229 11.2997 10.1001 11.0921 10.4181C10.5325 11.3395 10.0867 12.3254 9.76466 13.3542C9.34617 14.7286 9.10512 16.0627 9.76466 17.432C10.4242 18.8013 11.9843 18.4364 13.3653 16.7624C14.7463 15.0885 15.8076 13.4312 16.956 12.0251C18.1043 10.619 19.4468 9.78203 20.7391 9.63807C22.0314 9.49411 22.6675 9.95445 23.1797 10.4399C23.6919 10.9253 23.9698 9.97788 23.9949 9.47403C24.0311 8.93502 23.8773 8.40036 23.5601 7.96302C23.243 7.52569 22.7826 7.21333 22.259 7.08028C20.5483 6.56972 17.9871 8.95343 16.889 10.167C15.7591 11.4158 13.8106 14.213 13.0841 15.0064C12.3576 15.7999 11.3532 16.2117 10.8829 15.5488C10.4125 14.8859 10.5297 13.5401 10.7992 12.6529C10.9888 11.9535 11.2346 11.2705 11.534 10.6106Z" fill="#E8158D"/>
</svg>