<svg xmlns="http://www.w3.org/2000/svg" width="24" height="24" viewBox="0 0 24 24" fill="none">
<g clip-path="url(#clip0_2303_348)">
<path d="M22.1772 8.06838C22.252 7.66752 22.2899 7.26063 22.2904 6.85283C22.2858 3.06543 19.2118 -0.00114762 15.4244 0.00342307C12.5413 0.00688876 9.96824 1.81332 8.98559 4.52384C7.22618 3.82347 5.2321 4.68195 4.53168 6.44137C4.47105 6.59366 4.42143 6.75007 4.3832 6.90944C1.57389 7.32959 -0.362881 9.94759 0.0572712 12.7569C0.434077 15.2765 2.59858 17.1405 5.14611 17.1394H9.43216C9.9056 17.1394 10.2894 16.7557 10.2894 16.2822C10.2894 15.8088 9.9056 15.425 9.43216 15.425H5.14611C3.25239 15.425 1.71724 13.8898 1.71724 11.9961C1.71724 10.1024 3.25239 8.56724 5.14611 8.56724C5.61955 8.56724 6.00334 8.18345 6.00334 7.71001C6.0049 6.76318 6.77373 5.99686 7.72056 5.99841C8.16834 5.99917 8.59809 6.17506 8.91783 6.48848C9.25501 6.82079 9.79777 6.81682 10.1301 6.47964C10.2548 6.35302 10.3372 6.19078 10.3656 6.01529C10.8309 3.21597 13.4774 1.3239 16.2767 1.78921C19.0761 2.25451 20.9681 4.90099 20.5028 7.70032C20.4751 7.86722 20.4391 8.03267 20.395 8.19601C20.2965 8.55383 20.4394 8.9344 20.7491 9.13893C22.327 10.1859 22.7574 12.3139 21.7104 13.8918C21.0767 14.8469 20.0077 15.4222 18.8615 15.4249H16.2899C15.8164 15.4249 15.4326 15.8087 15.4326 16.2821C15.4326 16.7556 15.8164 17.1393 16.2899 17.1393H18.8615C21.7021 17.1367 24.0026 14.8318 23.9999 11.9912C23.9985 10.4793 23.3319 9.04455 22.1772 8.06838Z" fill="#EC088D"/>
<path d="M17.7338 18.2472C17.4016 17.9264 16.875 17.9264 16.5428 18.2472L13.7183 21.0701V8.5667C13.7183 8.09326 13.3345 7.70947 12.8611 7.70947C12.3876 7.70947 12.0038 8.09326 12.0038 8.5667V21.07L9.181 18.2472C8.84046 17.9183 8.2978 17.9277 7.96891 18.2682C7.64806 18.6004 7.64806 19.1271 7.96891 19.4593L12.255 23.7453C12.5893 24.0805 13.1321 24.0812 13.4673 23.7468C13.4678 23.7463 13.4683 23.7458 13.4688 23.7453L17.7549 19.4593C18.0838 19.1188 18.0744 18.5761 17.7338 18.2472Z" fill="#EC088D"/>
</g>
<defs>
<clipPath id="clip0_2303_348">
<rect width="24" height="24" fill="white"/>
</clipPath>
</defs>
</svg>