<svg xmlns="http://www.w3.org/2000/svg" width="24" height="24" viewBox="0 0 24 24" fill="none">
  <path d="M21.167 7.94245L23.801 5.28703C23.879 5.20837 23.9154 5.09766 23.8993 4.98816C23.8831 4.87861 23.8163 4.78308 23.719 4.73034L15.0707 0.0429375C14.9339 -0.0311719 14.7646 -0.00665625 14.6546 0.103406L11.9997 2.75836L9.34489 0.103594C9.27879 0.0370313 9.1902 0 9.09692 0C9.03833 0 8.98067 0.0149531 8.92911 0.043125L6.15134 1.54819C6.06884 1.59319 6.00884 1.66725 5.98212 1.75725C5.9554 1.84725 5.96525 1.94241 6.00978 2.02491C6.07165 2.13834 6.19025 2.20917 6.31915 2.20917C6.37728 2.20917 6.4354 2.19417 6.4865 2.16652L9.03317 0.786094L11.4177 3.17058L3.39237 7.5083L1.02804 5.1247L5.24998 2.83636C5.33295 2.79183 5.39295 2.71777 5.41967 2.62777C5.44639 2.53777 5.43654 2.44261 5.39154 2.36011C5.33014 2.24667 5.21154 2.17589 5.08264 2.17589C5.02451 2.17589 4.96686 2.19084 4.91529 2.2185L0.280857 4.73053C0.183825 4.78252 0.116325 4.87913 0.100388 4.98834C0.0844504 5.09705 0.12106 5.20861 0.198825 5.28694L2.83259 7.94255L0.198638 10.5979C0.120685 10.6766 0.0843097 10.7873 0.100435 10.8968C0.116607 11.0063 0.183403 11.1019 0.280716 11.1546L2.97664 12.6158V18.96C2.97659 18.9722 2.9772 18.9843 2.97842 18.9962C2.97894 19.0013 2.97992 19.0063 2.98062 19.0114C2.98151 19.0175 2.98222 19.0237 2.98344 19.0297C2.98494 19.0373 2.987 19.0448 2.98897 19.0522C2.9899 19.0556 2.99061 19.0591 2.99164 19.0625C2.99394 19.0701 2.9967 19.0774 2.99947 19.0848C3.00068 19.0881 3.00172 19.0914 3.00308 19.0947C3.00579 19.1013 3.00894 19.1077 3.01203 19.114C3.01395 19.118 3.01569 19.122 3.01775 19.1259C3.02056 19.1311 3.0237 19.1362 3.0267 19.1412C3.02961 19.146 3.03237 19.1509 3.03547 19.1557C3.03804 19.1595 3.04095 19.1632 3.04372 19.167C3.0477 19.1725 3.05164 19.1781 3.05595 19.1835C3.05834 19.1864 3.06101 19.1891 3.0635 19.192C3.06847 19.1977 3.07343 19.2034 3.07878 19.2088C3.08154 19.2116 3.08459 19.2141 3.08745 19.2169C3.09279 19.2219 3.09804 19.227 3.10372 19.2316C3.1092 19.2362 3.11501 19.2403 3.12073 19.2445C3.12411 19.247 3.12725 19.2496 3.13072 19.252C3.14079 19.2588 3.15125 19.2651 3.16203 19.2709L11.8309 23.9568C11.8433 23.9637 11.8564 23.9696 11.8697 23.9749C11.8726 23.976 11.8756 23.9771 11.8785 23.9781C11.8883 23.9817 11.8982 23.9849 11.9083 23.9876C11.912 23.9886 11.9156 23.9895 11.9193 23.9904C11.9291 23.9927 11.9391 23.9945 11.9492 23.996C11.9527 23.9964 11.9561 23.9971 11.9595 23.9975C11.9727 23.999 11.9862 24 11.9998 24C12.0134 24 12.0268 23.999 12.0401 23.9975C12.0435 23.9971 12.047 23.9964 12.0504 23.996C12.0605 23.9945 12.0705 23.9927 12.0803 23.9904C12.084 23.9895 12.0876 23.9886 12.0912 23.9876C12.1014 23.9849 12.1113 23.9817 12.121 23.9781C12.124 23.9771 12.1269 23.976 12.1298 23.9749C12.1431 23.9696 12.1562 23.9637 12.1686 23.9568L20.8375 19.2709C20.8482 19.2651 20.8587 19.2588 20.8688 19.252C20.8722 19.2496 20.8754 19.2469 20.8788 19.2445C20.8845 19.2403 20.8903 19.2361 20.8958 19.2316C20.9015 19.227 20.9067 19.2219 20.912 19.2169C20.9149 19.2141 20.918 19.2116 20.9207 19.2088C20.9261 19.2034 20.931 19.1977 20.936 19.192C20.9385 19.1891 20.9412 19.1864 20.9435 19.1835C20.9479 19.1782 20.9518 19.1726 20.9558 19.167C20.9585 19.1632 20.9615 19.1595 20.964 19.1557C20.9671 19.1509 20.9699 19.1461 20.9728 19.1412C20.9758 19.1362 20.979 19.1311 20.9818 19.1259C20.9838 19.122 20.9855 19.118 20.9875 19.114C20.9906 19.1077 20.9937 19.1013 20.9964 19.0947C20.9978 19.0914 20.9988 19.0881 21 19.0848C21.0028 19.0775 21.0056 19.0701 21.0079 19.0625C21.0089 19.0591 21.0096 19.0557 21.0105 19.0522C21.0125 19.0448 21.0146 19.0373 21.0161 19.0297C21.0173 19.0237 21.018 19.0175 21.0189 19.0114C21.0196 19.0063 21.0206 19.0013 21.0211 18.9962C21.0223 18.9842 21.0229 18.9721 21.0229 18.96V12.6158L23.7186 11.1547C23.8157 11.1022 23.8832 11.0056 23.8991 10.8968C23.915 10.7876 23.8785 10.6761 23.8011 10.5978L21.167 7.94245ZM14.9663 0.786141L22.9715 5.12494L20.6072 7.50844L12.582 3.17044L14.9663 0.786141ZM3.49418 12.0966L1.02818 10.76L3.39247 8.37652L11.4177 12.7145L9.03336 15.0988L3.49718 12.0982C3.4962 12.0976 3.49522 12.0971 3.49418 12.0966ZM11.6483 23.0588L3.67972 18.7514V12.9969L8.92897 15.842C8.9817 15.8706 9.03926 15.8845 9.09636 15.8845C9.18744 15.8845 9.27744 15.8491 9.34508 15.7815L11.6483 13.4783V23.0588ZM11.9998 12.2299L4.06826 7.94255L12 3.65512L19.9316 7.9425L11.9998 12.2299ZM20.5069 12.0959C20.5049 12.0969 20.5031 12.0979 20.5012 12.099L18.7497 13.0483C18.6667 13.0928 18.6067 13.1674 18.58 13.2574C18.5533 13.3474 18.5631 13.4425 18.6077 13.5251C18.6695 13.6385 18.7881 13.7088 18.917 13.7088C18.9752 13.7088 19.0333 13.6943 19.0844 13.6666L20.3199 12.9969V18.7515L12.3514 23.0588V13.4782L14.6548 15.7815C14.7214 15.8481 14.8095 15.8847 14.9032 15.8847C14.9614 15.8847 15.019 15.8697 15.0706 15.842L17.8483 14.3364C17.9308 14.2919 17.9908 14.2174 18.0176 14.1274C18.0443 14.0374 18.0344 13.9427 17.9899 13.8602C17.928 13.7463 17.8094 13.676 17.6801 13.676C17.6224 13.676 17.5643 13.6905 17.5132 13.7186L14.9665 15.0985L12.582 12.7146L20.6074 8.37633L22.9717 10.7599L20.5069 12.0959Z" fill="#EC088D"/>
</svg>