<svg xmlns="http://www.w3.org/2000/svg" width="29" height="24" viewBox="0 0 29 24" fill="none">
  <g clip-path="url(#clip0_135_71)">
    <path d="M18.6692 12.3321V8.948C18.6692 8.68911 18.4156 8.47925 18.1028 8.47925H13.4659C13.1531 8.47925 12.8995 8.68911 12.8995 8.948V12.3321H10.5528C10.0939 12.326 9.81849 12.7826 10.1 13.0824L15.3315 18.8444C15.5434 19.0912 16.0252 19.0912 16.2371 18.8444L21.4686 13.0824C21.5975 12.9404 21.6184 12.7503 21.5225 12.5914C21.4267 12.4325 21.2304 12.332 21.0158 12.332H18.6692V12.3321ZM15.7843 17.7825L11.6869 13.2696H13.4659C13.7787 13.2696 14.0323 13.0597 14.0323 12.8008V9.41675H17.5363V12.8008C17.5363 13.0597 17.7899 13.2696 18.1028 13.2696H19.8817L15.7843 17.7825Z" fill="white"/>
    <path d="M23.8458 3.32119H20.3607C20.183 1.46541 18.3027 0 16.0154 0H15.9214C15.4238 0 14.9459 0.0702656 14.5001 0.197906C14.0542 0.0702656 13.5764 0 13.0787 0H12.9847C10.6974 0 8.81713 1.46541 8.6394 3.32119H5.1543C4.84147 3.32119 4.58789 3.53105 4.58789 3.78994V22.4896C4.58789 23.3225 5.40669 24 6.41308 24H22.5872C23.5935 24 24.4123 23.3225 24.4123 22.4896V3.78994C24.4122 3.53105 24.1586 3.32119 23.8458 3.32119ZM16.0154 0.9375C17.6778 0.9375 19.0502 1.983 19.2241 3.32119H17.4241C17.3338 2.37923 16.806 1.53764 16.0076 0.9375H16.0154ZM14.5001 1.2112C15.4701 1.60669 16.1668 2.39344 16.2874 3.32119H12.7128C12.8333 2.39344 13.53 1.60669 14.5001 1.2112ZM12.9847 0.9375H12.9926C12.1942 1.53764 11.6663 2.37923 11.5761 3.32119H9.77612C9.94989 1.983 11.3224 0.9375 12.9847 0.9375ZM5.7207 22.4896V4.25869H7.15598V23.0625H6.41302C6.03126 23.0625 5.7207 22.8055 5.7207 22.4896ZM12.101 23.0625V21.1546H19.4673V23.0625H12.101ZM23.2794 22.4896C23.2794 22.8055 22.9689 23.0625 22.587 23.0625H20.6V20.6858C20.6 20.427 20.3464 20.2171 20.0336 20.2171H11.5346C11.2218 20.2171 10.9682 20.427 10.9682 20.6858V23.0625H8.28879V4.25869H11.561V5.83148H11.2308C10.4793 5.85623 10.4798 6.74447 11.2308 6.76898H13.024C13.7755 6.74423 13.7749 5.856 13.024 5.83148H12.6938V4.25869H19.243V5.83148H18.9128C18.1613 5.85623 18.1618 6.74447 18.9128 6.76898H20.706C21.4575 6.74423 21.4569 5.856 20.706 5.83148H20.3758V4.25869H23.2794V22.4896Z" fill="white"/>
  </g>
  <defs>
    <clipPath id="clip0_135_71">
      <rect width="29" height="24" fill="white"/>
    </clipPath>
  </defs>
</svg>