<svg xmlns="http://www.w3.org/2000/svg" width="24" height="24" viewBox="0 0 24 24" fill="none">
  <g clip-path="url(#clip0_135_242)">
    <path d="M7.45882 20H22.5499C23.2769 20 23.8687 19.405 23.8687 18.674V6.5C23.8687 6.224 23.6459 6 23.3714 6H4.47521C4.20072 6 3.97794 6.224 3.97794 6.5V10.5C3.97794 10.776 4.20072 11 4.47521 11C4.7497 11 4.97248 10.776 4.97248 10.5V7H22.8741V18.674C22.8741 18.854 22.7289 19 22.5499 19H7.45882C7.18433 19 6.96155 19.224 6.96155 19.5C6.96155 19.776 7.18433 20 7.45882 20Z" fill="white"/>
    <path d="M4.47522 7C4.65025 7 4.82032 6.907 4.91082 6.741L7.91432 1.259C8.00084 1.099 8.16793 1 8.34993 1H19.4967C19.6787 1 19.8458 1.099 19.9323 1.259L22.9358 6.741C23.0681 6.984 23.3724 7.069 23.6111 6.938C23.8518 6.805 23.9393 6.5 23.807 6.259L20.8035 0.777C20.5419 0.297 20.0407 0 19.4967 0H8.34893C7.80492 0 7.30367 0.297 7.04211 0.776L4.03961 6.258C3.90634 6.5 3.99386 6.804 4.23454 6.937C4.31112 6.98 4.39366 7 4.47522 7Z" fill="white"/>
    <path d="M13.9231 7C14.1976 7 14.4204 6.776 14.4204 6.5V0.5C14.4204 0.224 14.1976 0 13.9231 0C13.6486 0 13.4259 0.224 13.4259 0.5V6.5C13.4259 6.776 13.6486 7 13.9231 7Z" fill="white"/>
    <path d="M0.497131 24C0.771623 24 0.994399 23.776 0.994399 23.5V21.5C0.994399 18.467 3.44891 16 6.46434 16H8.45342C8.72791 16 8.95068 15.776 8.95068 15.5C8.95068 15.224 8.72791 15 8.45342 15H6.46434C2.89993 15 -0.000136375 17.916 -0.000136375 21.5V23.5C-0.000136375 23.776 0.222639 24 0.497131 24Z" fill="white"/>
    <path d="M4.97255 19C5.08693 19 5.20229 18.96 5.29578 18.879L8.77664 15.879C8.88803 15.785 8.95068 15.646 8.95068 15.5C8.95068 15.354 8.88803 15.215 8.77664 15.121L5.29578 12.121C5.08792 11.942 4.77564 11.965 4.59463 12.175C4.41562 12.384 4.44048 12.7 4.64933 12.88L7.68862 15.5L4.64834 18.121C4.43949 18.301 4.41562 18.616 4.59364 18.826C4.69409 18.941 4.83233 19 4.97255 19Z" fill="white"/>
  </g>
  <defs>
    <clipPath id="clip0_135_242">
      <rect width="23.8689" height="24" fill="white" transform="matrix(-1 0 0 1 23.8687 0)"/>
    </clipPath>
  </defs>
</svg>