<svg xmlns="http://www.w3.org/2000/svg" width="24" height="18" viewBox="0 0 24 18" fill="none">
    <path d="M22.5 0.75H8.25C8.0505 0.75 7.86 0.8295 7.719 0.969L6.75 1.9395L5.781 0.969C5.64 0.8295 5.4495 0.75 5.25 0.75H1.5C0.6735 0.75 0 1.4235 0 2.25V15.75C0 16.578 0.6735 17.25 1.5 17.25H5.25C5.4495 17.25 5.64 17.1705 5.781 17.031L6.75 16.0605L7.719 17.0295C7.86 17.1705 8.0505 17.25 8.25 17.25H22.5C23.328 17.25 24 16.578 24 15.75V2.25C24 1.4235 23.328 0.75 22.5 0.75ZM7.5 14.25H6V12.75H7.5V14.25ZM7.5 11.25H6V9.75H7.5V11.25ZM7.5 8.25H6V6.75H7.5V8.25ZM7.5 5.25H6V3.75H7.5V5.25ZM12.75 3.75C13.9905 3.75 15 4.7595 15 6C15 7.2405 13.9905 8.25 12.75 8.25C11.5095 8.25 10.5 7.2405 10.5 6C10.5 4.7595 11.5095 3.75 12.75 3.75ZM11.25 14.25C11.0805 14.25 10.911 14.193 10.77 14.076C10.452 13.8105 10.4085 13.338 10.674 13.02L18.174 4.02C18.441 3.7005 18.9135 3.6615 19.23 3.924C19.548 4.1895 19.59 4.662 19.3245 4.9815L11.8245 13.9815C11.6775 14.157 11.4645 14.25 11.25 14.25ZM17.25 14.25C16.0095 14.25 15 13.2405 15 12C15 10.7595 16.0095 9.75 17.25 9.75C18.4905 9.75 19.5 10.7595 19.5 12C19.5 13.2405 18.4905 14.25 17.25 14.25Z" fill="#FF99CC"/>
</svg>