<svg xmlns="http://www.w3.org/2000/svg" width="24" height="24" viewBox="0 0 24 24" fill="none">
<path d="M21.1708 7.72596L22.0946 6.90105L23.8972 5.29137C23.9758 5.21272 24.0125 5.102 23.9962 4.9925C23.9799 4.88295 23.9126 4.78742 23.8145 4.73468L15.2472 0.0424867C15.1769 0.00469761 15.0981 -0.00744821 15.023 0.00431531C14.9508 0.0156216 14.8821 0.0490148 14.8277 0.102955L13.173 1.65931L11.9998 2.7627L10.918 1.72799L9.22414 0.107928C9.15751 0.0413651 9.06819 0.00433385 8.97415 0.00433385C8.91508 0.00433385 8.85696 0.019287 8.80498 0.0474588L6.10392 1.55253L8.97415 1.65931L11 3.50002L4 7.00002L2.1144 5.29128L8.97415 1.65931L6.10392 1.55253L0.185675 4.73487C0.0878546 4.78686 0.0198055 4.88347 0.00373834 4.99268C-0.0123288 5.10139 0.0245784 5.21295 0.102977 5.29128L2.90339 7.77239L0.102788 10.6023C0.0242004 10.6809 -0.0124706 10.7916 0.00378559 10.9011C0.020089 11.0107 0.0874293 11.1062 0.185534 11.159L2.90339 12.6201L2.92534 19.0043C2.92529 19.0165 2.92591 19.0286 2.92714 19.0405C2.92766 19.0456 2.92865 19.0506 2.92936 19.0557C2.93025 19.0618 2.93096 19.0679 2.93219 19.074C2.9337 19.0816 2.93578 19.089 2.93777 19.0965C2.93871 19.0999 2.93942 19.1034 2.94046 19.1068C2.94278 19.1144 2.94557 19.1217 2.94835 19.1291C2.94958 19.1324 2.95062 19.1357 2.95199 19.139C2.95473 19.1456 2.9579 19.1519 2.96102 19.1583C2.96296 19.1623 2.9647 19.1663 2.96678 19.1702C2.96962 19.1754 2.97279 19.1805 2.97581 19.1855C2.97874 19.1903 2.98153 19.1952 2.98465 19.1999C2.98725 19.2038 2.99018 19.2075 2.99296 19.2113C2.99698 19.2168 3.00095 19.2224 3.0053 19.2277C3.00771 19.2307 3.0104 19.2334 3.01291 19.2363C3.01792 19.242 3.02292 19.2477 3.02831 19.2531C3.0311 19.2559 3.03417 19.2584 3.03705 19.2612C3.04244 19.2662 3.04773 19.2712 3.05345 19.2759C3.05898 19.2805 3.06484 19.2846 3.07061 19.2888C3.07401 19.2913 3.07718 19.2939 3.08067 19.2963C3.09083 19.3031 3.10137 19.3094 3.11224 19.3152L11.8296 23.9612C11.8422 23.968 11.8553 23.9739 11.8688 23.9793C11.8717 23.9804 11.8747 23.9814 11.8777 23.9824C11.8875 23.9861 11.8975 23.9892 11.9078 23.9919C11.9114 23.9929 11.9151 23.9939 11.9188 23.9947C11.9287 23.997 11.9388 23.9989 11.949 24.0003C11.9525 24.0008 11.9559 24.0014 11.9594 24.0019C11.9727 24.0034 11.9862 24.0043 12 24.0043C12.0137 24.0043 12.0272 24.0034 12.0405 24.0019C12.044 24.0014 12.0475 24.0008 12.051 24.0003C12.0612 23.9989 12.0713 23.997 12.0811 23.9947C12.0848 23.9939 12.0885 23.9929 12.0921 23.9919C12.1024 23.9892 12.1124 23.9861 12.1222 23.9824C12.1251 23.9814 12.1281 23.9804 12.131 23.9793C12.1445 23.9739 12.1576 23.968 12.1702 23.9612L20.9839 19.2449C20.9948 19.2391 21.0054 19.2328 21.0155 19.226C21.019 19.2236 21.0222 19.2209 21.0256 19.2185C21.0314 19.2142 21.0373 19.2101 21.0427 19.2056C21.0485 19.2009 21.0537 19.1959 21.0591 19.1909C21.062 19.1881 21.0651 19.1856 21.0679 19.1828C21.0733 19.1774 21.0783 19.1717 21.0833 19.166C21.0858 19.1631 21.0885 19.1604 21.0909 19.1574C21.0952 19.1521 21.0992 19.1466 21.1032 19.141C21.106 19.1372 21.1089 19.1335 21.1115 19.1296C21.1147 19.1249 21.1174 19.1201 21.1204 19.1152C21.1234 19.1101 21.1266 19.1051 21.1294 19.0999C21.1315 19.096 21.1332 19.092 21.1352 19.088C21.1383 19.0816 21.1415 19.0753 21.1442 19.0687C21.1456 19.0654 21.1466 19.0621 21.1478 19.0588C21.1506 19.0514 21.1534 19.0441 21.1557 19.0365C21.1568 19.0331 21.1575 19.0297 21.1584 19.0262C21.1604 19.0187 21.1625 19.0113 21.164 19.0037C21.1652 18.9976 21.1659 18.9915 21.1668 18.9854C21.1675 18.9803 21.1686 18.9753 21.1691 18.9702C21.1703 18.9582 21.1709 18.9461 21.1708 18.934V12.7881L23.8141 11.159C23.912 11.1065 23.98 11.0099 23.9961 10.9012C24.0121 10.792 23.9753 10.6804 23.8973 10.6021L21.1708 7.72596ZM15.023 1.65931L21.8828 5.29137L20 6.90105L13.173 3.50434L15.023 1.65931ZM1.9172 10.5043L3.93348 8.50432L11 12.5L8.8054 14.3966L1.9172 10.5043ZM11.0895 21.8956L4.43754 18.2803V13.5043L8.8054 15.9619C8.85856 15.9904 8.91659 16.0043 8.97415 16.0043C9.06597 16.0043 9.1567 15.969 9.2249 15.9014L11.0895 14.1668V18.3968V21.8956ZM11.7821 11.159L5.5 7.77239L11.9998 4.55446L18.4441 7.72596L11.7821 11.159ZM15.023 14.3966L19.6586 13.59V18.2803L12.5869 21.8956V14.1668L14.7725 15.9012C14.8397 15.9678 14.9285 16.0043 15.023 16.0043C15.0816 16.0043 15.1397 15.9893 15.1917 15.9617L19.6586 13.59L15.023 14.3966L12.5869 12.5043L20.0636 8.50432L22.0799 10.6021L15.023 14.3966Z" fill="#EC088D"/>
</svg>