<svg xmlns="http://www.w3.org/2000/svg" width="101" height="101" viewBox="0 0 101 101" fill="none">
  <g clip-path="url(#clip0_105_0)">
    <path fill-rule="evenodd" clip-rule="evenodd" d="M91.6912 84.2442C91.2258 83.7788 91.2258 81.9171 91.2258 80.0553C91.2258 78.1936 90.7604 74.9355 93.553 76.3318C93.553 77.7281 93.553 82.8479 93.553 84.2442C93.0876 84.2442 92.6221 84.7097 91.6912 84.2442ZM63.2995 84.7097C60.9724 82.3825 60.9724 78.659 63.765 75.8664H74.0046C74.0046 78.1936 74.0046 82.3825 74.0046 84.7097H63.2995ZM32.1152 73.5392C32.1152 72.6083 32.1152 72.6083 32.5806 71.6774H33.5115C34.9078 73.0737 34.4424 74.0046 34.4424 75.8664H42.3548C45.1475 76.7972 45.6129 84.7097 41.424 84.7097H33.977C33.5115 84.2442 33.5115 84.2442 33.0461 83.7788C31.6498 81.4516 32.1152 76.7972 32.1152 73.5392ZM20.4793 84.7097C19.083 84.7097 18.6175 84.2442 18.1521 83.3134C15.8249 80.0553 18.6175 76.3318 19.083 75.8664L29.788 76.3318C29.788 78.1936 29.788 82.3825 29.788 84.2442C28.8571 84.7097 21.8756 84.7097 20.4793 84.7097ZM46.5438 73.5392C46.5438 72.6083 47.0092 72.6083 47.4747 71.6774H48.4055C49.3364 73.0737 48.871 74.0046 48.871 75.8664H57.2488C57.7143 76.7972 58.1797 76.3318 58.6452 78.1936C60.0415 80.9862 58.6452 84.7097 56.318 84.7097H49.3364C46.0783 84.7097 46.5438 76.3318 46.5438 73.5392ZM76.7972 84.2442C76.3318 83.3134 76.3318 80.5207 76.7972 79.1244C76.7972 77.7281 77.7281 76.7972 78.659 75.8664C80.0553 75.8664 86.5714 75.8664 87.5023 76.3318C88.8986 77.7281 89.3641 81.4516 88.8986 83.7788C87.9677 85.1751 87.0369 84.7097 87.0369 82.8479C86.5714 81.4516 87.0369 80.0553 86.5714 78.659H79.1244C78.1936 80.9862 79.5899 82.8479 78.1936 84.7097L76.7972 84.2442ZM5.11982 84.7097C3.25806 84.7097 3.25806 83.3134 3.25806 80.0553C3.7235 78.659 4.65438 76.3318 5.58525 75.8664C7.447 75.8664 9.77419 75.8664 11.6359 75.8664C13.0323 75.8664 13.9631 75.8664 14.4286 76.3318C14.894 77.2627 15.3594 77.7281 15.3594 78.659C14.4286 79.1244 7.447 78.659 6.05069 78.659C5.58525 80.5207 6.05069 81.9171 5.58525 83.7788L5.11982 84.7097ZM98.2074 76.3318C98.6728 76.7972 98.6728 77.2627 98.6728 78.1936C97.7419 77.7281 98.2074 78.1936 98.2074 77.2627C97.7419 78.1936 98.2074 77.7281 97.7419 78.1936L97.2765 77.2627C97.2765 78.1936 96.8111 77.7281 96.8111 78.1936V76.3318C97.2765 76.7972 97.2765 76.3318 97.7419 77.7281C98.2074 76.7972 97.7419 76.7972 98.2074 76.3318ZM95.8802 78.1936C95.4147 77.7281 95.8802 77.7281 95.4147 77.2627C95.4147 76.3318 95.4147 76.7972 94.9493 76.3318H96.3456C95.8802 77.2627 95.8802 76.7972 95.8802 77.7281C95.8802 78.1936 95.8802 77.7281 95.8802 78.1936ZM91.6912 73.5392C91.2258 72.1429 91.6912 71.6774 93.0876 71.6774C93.0876 72.1429 93.553 72.6083 93.553 73.0737C93.0876 74.0046 92.6221 74.0046 91.6912 73.5392ZM61.9032 61.9032C64.2304 62.3687 65.1613 60.0415 66.5576 58.1797C67.9539 56.318 69.3502 54.9217 70.7465 53.0599C76.7972 46.5438 80.9862 51.6636 78.659 54.9217C77.2627 54.9217 76.7972 53.0599 74.0046 53.9908C71.212 54.4562 69.8157 57.2488 67.9539 59.576L66.5576 60.9724C66.0922 61.4378 66.0922 62.3687 65.6267 62.8341C59.576 69.8157 57.7143 62.3687 60.9724 55.8525C61.9032 53.9908 61.4378 54.4562 62.3687 54.4562C62.8341 55.3871 59.576 59.576 61.9032 61.9032ZM49.8018 46.0783C50.2673 47.0092 49.3364 47.4747 48.871 49.8018C47.4747 53.0599 46.0783 60.9724 50.7327 59.576C53.0599 58.6452 54.4562 56.318 55.8525 54.4562L62.3687 46.0783L67.4885 40.9585C79.5899 32.5806 81.4516 46.0783 78.659 47.0092C77.7281 46.5438 76.7972 45.6129 75.4009 44.682C71.212 43.2857 67.023 46.0783 64.2304 48.871C60.5069 52.129 54.4562 63.2995 49.8018 65.1613C46.5438 66.5576 45.1475 63.765 44.682 60.9724C44.2166 57.7143 45.1475 54.9217 46.0783 52.129C46.5438 50.7327 48.4055 45.6129 49.8018 46.0783ZM26.53 49.3364C26.53 59.576 34.4424 55.8525 37.7005 51.6636C42.3548 45.1475 53.0599 30.2535 60.0415 26.0645C60.9724 25.1336 61.9032 24.6682 63.2995 23.7373C68.4194 20.9447 73.0737 19.5484 77.2627 24.2028C80.9862 28.3917 79.1244 33.977 78.1936 34.9078C76.3318 36.3041 75.4009 31.1843 68.4194 31.1843C62.3687 31.1843 56.7834 34.9078 53.0599 39.0968C51.6636 40.9585 43.2857 52.129 40.9585 55.3871C39.5622 57.2488 37.235 60.0415 35.8387 61.4378C28.3917 68.8848 22.341 65.6267 22.341 54.4562C22.341 49.3364 24.6682 41.8894 26.9954 37.235C28.3917 35.3733 29.3226 33.0461 30.7189 33.5115C31.1843 34.9078 29.788 36.3041 29.3226 37.7005C28.8571 38.6313 28.8571 39.5622 28.3917 40.9585C27.4608 43.7512 26.53 46.5438 26.53 49.3364ZM0 11.1705V89.8295C0 94.9493 1.39631 98.2074 5.58525 100.069C6.98157 101 8.37788 101 10.2396 101H91.2258C94.0184 101 96.3456 100.535 98.2074 98.6728L100.069 95.8802C101 94.9493 101 93.553 101 91.6912V0C89.3641 0 77.7281 0 66.0922 0H9.30876C6.51613 0 3.7235 1.39631 2.32719 3.25806C0.930876 5.11982 0 7.447 0 11.1705Z" fill="#EC088D"/>
    <path fill-rule="evenodd" clip-rule="evenodd" d="M26.53 49.3364C26.53 46.5437 27.4608 43.7511 28.3917 40.9585C28.8572 39.5622 28.8572 38.6313 29.3226 37.7004C29.788 36.3041 31.1844 34.9078 30.7189 33.5115C29.3226 33.0461 28.3917 35.3732 26.9954 37.235C24.6682 41.8894 22.341 49.3364 22.341 54.4562C22.341 65.6267 28.3917 68.8847 35.8387 61.4377C37.235 60.0414 39.5622 57.2488 40.9585 55.3871C43.2857 52.129 51.6636 40.9585 53.0599 39.0967C56.7834 34.9078 62.3687 31.1843 68.4194 31.1843C75.4009 31.1843 76.3318 36.3041 78.1936 34.9078C79.1244 33.9769 80.9862 28.3917 77.2627 24.2027C73.0737 19.5484 68.4194 20.9447 63.2996 23.7373C61.9032 24.6682 60.9724 25.1336 60.0415 26.0645C53.0599 30.2534 42.3549 45.1474 37.7005 51.6636C34.4424 55.8525 26.53 59.576 26.53 49.3364Z" fill="#FEFCFE"/>
    <path fill-rule="evenodd" clip-rule="evenodd" d="M49.8019 46.0784C48.4056 45.6129 46.5438 50.7327 46.0784 52.1291C45.1475 54.9217 44.2167 57.7143 44.6821 60.9724C45.1475 63.765 46.5438 66.5576 49.8019 65.1613C54.4563 63.2996 60.507 52.1291 64.2305 48.871C67.0231 46.0784 71.212 43.2857 75.401 44.682C76.7973 45.6129 77.7282 46.5438 78.659 47.0092C81.4517 46.0784 79.5899 32.5806 67.4885 40.9585L62.3687 46.0784L55.8526 54.4562C54.4563 56.318 53.06 58.6452 50.7328 59.5761C46.0784 60.9724 47.4747 53.0599 48.871 49.8019C49.3365 47.4747 50.2673 47.0092 49.8019 46.0784Z" fill="#FEFCFE"/>
    <path fill-rule="evenodd" clip-rule="evenodd" d="M41.8894 78.659C42.3548 80.0553 42.3548 80.5207 41.8894 81.9171H34.9078C33.9769 80.0553 34.9078 78.659 34.9078 78.659H41.8894ZM32.1152 73.5392C32.1152 76.7972 31.6497 81.4516 33.0461 83.7788C33.5115 84.2442 33.5115 84.2442 33.9769 84.7097H41.4239C45.6129 84.7097 45.1474 76.7972 42.3548 75.8664H34.4424C34.4424 74.0046 34.9078 73.0737 33.5115 71.6774H32.5806C32.1152 72.6083 32.1152 72.6083 32.1152 73.5392Z" fill="#FEFCFE"/>
    <path fill-rule="evenodd" clip-rule="evenodd" d="M49.3363 81.9171C48.8709 80.5207 48.8709 79.5899 49.3363 78.659H56.7833C57.2487 80.0553 57.2487 80.5207 56.7833 81.9171H49.3363ZM46.5437 73.5392C46.5437 76.3318 46.0782 84.7097 49.3363 84.7097H56.3179C58.6451 84.7097 60.0414 80.9862 58.6451 78.1936C58.1796 76.3318 57.7142 76.7972 57.2487 75.8664H48.8709C48.8709 74.0046 49.3363 73.0737 48.4054 71.6774H47.4746C47.0091 72.6083 46.5437 72.6083 46.5437 73.5392Z" fill="#FEFCFE"/>
    <path fill-rule="evenodd" clip-rule="evenodd" d="M26.9954 78.659V81.917H20.0138C19.5484 80.5207 19.0829 79.5898 20.0138 78.659H26.9954ZM20.4792 84.7097C21.8755 84.7097 28.8571 84.7097 29.788 84.2442C29.788 82.3825 29.788 78.1935 29.788 76.3318L19.0829 75.8663C18.6175 76.3318 15.8249 80.0553 18.152 83.3134C18.6175 84.2442 19.0829 84.7097 20.4792 84.7097Z" fill="#FEFCFE"/>
    <path fill-rule="evenodd" clip-rule="evenodd" d="M64.2304 78.659C64.2304 78.659 63.7649 78.659 64.6958 78.659H71.6774L71.2119 81.917H64.6958C63.7649 81.917 64.2304 81.917 64.2304 81.4516C63.7649 80.9862 63.7649 79.5898 64.2304 78.659ZM63.2995 84.7097H74.0046C74.0046 82.3825 74.0046 78.1935 74.0046 75.8663H63.7649C60.9723 78.659 60.9723 82.3825 63.2995 84.7097Z" fill="#FEFCFE"/>
    <path fill-rule="evenodd" clip-rule="evenodd" d="M61.9032 61.9032C59.576 59.576 62.8341 55.3871 62.3687 54.4562C61.4378 54.4562 61.9032 53.9908 60.9723 55.8525C57.7143 62.3687 59.576 69.8157 65.6267 62.8341C66.0922 62.3687 66.0922 61.4378 66.5576 60.9724L67.9539 59.576C69.8157 57.2489 71.212 54.4562 74.0046 53.9908C76.7973 53.0599 77.2627 54.9217 78.659 54.9217C80.9862 51.6636 76.7973 46.5438 70.7466 53.0599C69.3502 54.9217 67.9539 56.318 66.5576 58.1797C65.1613 60.0415 64.2304 62.3687 61.9032 61.9032Z" fill="#FEFCFE"/>
    <path fill-rule="evenodd" clip-rule="evenodd" d="M76.7972 84.2442L78.1935 84.7097C79.5899 82.8479 78.1935 80.9862 79.1244 78.659H86.5714C87.0369 80.0553 86.5714 81.4516 87.0369 82.8479C87.0369 84.7097 87.9677 85.1751 88.8986 83.7788C89.364 81.4516 88.8986 77.7281 87.5023 76.3318C86.5714 75.8663 80.0553 75.8663 78.659 75.8663C77.7281 76.7972 76.7972 77.7281 76.7972 79.1244C76.3318 80.5207 76.3318 83.3134 76.7972 84.2442Z" fill="#FEFCFE"/>
    <path fill-rule="evenodd" clip-rule="evenodd" d="M5.11984 84.7097L5.58528 83.7788C6.05071 81.917 5.58528 80.5207 6.05071 78.659C7.44703 78.659 14.4286 79.1244 15.3595 78.659C15.3595 77.7281 14.894 77.2627 14.4286 76.3318C13.9632 75.8663 13.0323 75.8663 11.636 75.8663C9.77422 75.8663 7.44703 75.8663 5.58528 75.8663C4.6544 76.3318 3.72352 78.659 3.25809 80.0553C3.25809 83.3134 3.25809 84.7097 5.11984 84.7097Z" fill="#FEFCFE"/>
    <path fill-rule="evenodd" clip-rule="evenodd" d="M49.3364 81.9171H56.7834C57.2489 80.5208 57.2489 80.0553 56.7834 78.659H49.3364C48.871 79.5899 48.871 80.5208 49.3364 81.9171Z" fill="#EC088D"/>
    <path fill-rule="evenodd" clip-rule="evenodd" d="M34.9078 78.659C34.9078 78.659 33.977 80.0553 34.9078 81.9171H41.8894C42.3548 80.5208 42.3548 80.0553 41.8894 78.659H34.9078Z" fill="#EC088D"/>
    <path fill-rule="evenodd" clip-rule="evenodd" d="M20.0139 78.659C19.083 79.5899 19.5484 80.5208 20.0139 81.9171H26.9955V78.659H20.0139Z" fill="#EC088D"/>
    <path fill-rule="evenodd" clip-rule="evenodd" d="M64.2304 81.4516H71.212V78.659H64.2304C63.765 79.5899 63.765 80.9861 64.2304 81.4516Z" fill="#EB098C"/>
    <path fill-rule="evenodd" clip-rule="evenodd" d="M91.6912 84.2442C92.6221 84.7097 93.0876 84.2442 93.553 84.2442C93.553 82.8479 93.553 77.7281 93.553 76.3317C90.7604 74.9354 91.2258 78.1935 91.2258 80.0553C91.2258 81.917 91.2258 83.7788 91.6912 84.2442Z" fill="#FEFCFE"/>
    <path fill-rule="evenodd" clip-rule="evenodd" d="M64.2304 81.4516C64.2304 81.9171 63.7649 81.9171 64.6958 81.9171H71.2119L71.6773 78.659H64.6958C63.7649 78.659 64.2304 78.659 64.2304 78.659H71.2119V81.4516H64.2304Z" fill="#F151AD"/>
    <path fill-rule="evenodd" clip-rule="evenodd" d="M91.6913 73.5392C92.6222 74.0046 93.0876 74.0046 93.5531 73.0738C93.5531 72.6083 93.0876 72.1429 93.0876 71.6774C91.6913 71.6774 91.2258 72.1429 91.6913 73.5392Z" fill="#FEFCFE"/>
    <path fill-rule="evenodd" clip-rule="evenodd" d="M96.8111 78.1935C96.8111 77.7281 97.2765 78.1935 97.2765 77.2626L97.7419 78.1935C98.2073 77.7281 97.7419 78.1935 98.2073 77.2626C98.2073 78.1935 97.7419 77.7281 98.6727 78.1935C98.6727 77.2626 98.6727 76.7972 98.2073 76.3317C97.7419 76.7972 98.2073 76.7972 97.7419 77.7281C97.2765 76.3317 97.2765 76.7972 96.8111 76.3317V78.1935Z" fill="#F9ACD9"/>
    <path fill-rule="evenodd" clip-rule="evenodd" d="M95.8802 78.1935C95.8802 77.7281 95.8802 78.1935 95.8802 77.7281C95.8802 76.7972 95.8802 77.2626 96.3456 76.3317H94.9493C95.4147 76.7972 95.4147 76.3317 95.4147 77.2626C95.8802 77.7281 95.4147 77.7281 95.8802 78.1935Z" fill="#FAB8DF"/>
  </g>
  <defs>
    <clipPath id="clip0_105_0">
      <rect width="101" height="101" fill="white"/>
    </clipPath>
  </defs>
</svg>