<svg xmlns="http://www.w3.org/2000/svg" width="24" height="17" viewBox="0 0 24 17" fill="none">
  <path d="M22.5 0H8.25C8.0505 0 7.86 0.0794999 7.719 0.219L6.75 1.1895L5.781 0.219C5.64 0.0794999 5.4495 0 5.25 0H1.5C0.6735 0 0 0.6735 0 1.5V15C0 15.828 0.6735 16.5 1.5 16.5H5.25C5.4495 16.5 5.64 16.4205 5.781 16.281L6.75 15.3105L7.719 16.2795C7.86 16.4205 8.0505 16.5 8.25 16.5H22.5C23.328 16.5 24 15.828 24 15V1.5C24 0.6735 23.328 0 22.5 0ZM7.5 13.5H6V12H7.5V13.5ZM7.5 10.5H6V9H7.5V10.5ZM7.5 7.5H6V6H7.5V7.5ZM7.5 4.5H6V3H7.5V4.5ZM12.75 3C13.9905 3 15 4.0095 15 5.25C15 6.4905 13.9905 7.5 12.75 7.5C11.5095 7.5 10.5 6.4905 10.5 5.25C10.5 4.0095 11.5095 3 12.75 3ZM11.25 13.5C11.0805 13.5 10.911 13.443 10.77 13.326C10.452 13.0605 10.4085 12.588 10.674 12.27L18.174 3.27C18.441 2.9505 18.9135 2.9115 19.23 3.174C19.548 3.4395 19.59 3.912 19.3245 4.2315L11.8245 13.2315C11.6775 13.407 11.4645 13.5 11.25 13.5ZM17.25 13.5C16.0095 13.5 15 12.4905 15 11.25C15 10.0095 16.0095 9 17.25 9C18.4905 9 19.5 10.0095 19.5 11.25C19.5 12.4905 18.4905 13.5 17.25 13.5Z" fill="#EC088D"/>
  <path d="M17.25 12C17.6642 12 18 11.6642 18 11.25C18 10.8358 17.6642 10.5 17.25 10.5C16.8358 10.5 16.5 10.8358 16.5 11.25C16.5 11.6642 16.8358 12 17.25 12Z" fill="#EC088D"/>
  <path d="M12.75 6C13.1642 6 13.5 5.66421 13.5 5.25C13.5 4.83579 13.1642 4.5 12.75 4.5C12.3358 4.5 12 4.83579 12 5.25C12 5.66421 12.3358 6 12.75 6Z" fill="#EC088D"/>
</svg>