<svg xmlns="http://www.w3.org/2000/svg" width="18" height="18" viewBox="0 0 18 18" fill="none">
  <g clip-path="url(#clip0_106_1249)">
    <path d="M7.41797 5.83594H6.89062V7.94531H7.41797C7.99805 7.94531 8.47266 7.4707 8.47266 6.89062C8.47266 6.31055 7.99805 5.83594 7.41797 5.83594Z" fill="#EC088D"/>
    <path d="M11.6367 9H11.1094V10.0547H11.6367C11.9321 10.0547 12.1641 9.8226 12.1641 9.52734C12.1641 9.23195 11.9321 9 11.6367 9Z" fill="#EC088D"/>
    <path d="M9 0C4.05354 0 0 4.05354 0 9C0 13.9465 4.05354 18 9 18C13.9465 18 18 13.9465 18 9C18 4.05354 13.9465 0 9 0ZM14.6092 14.6092C13.1027 16.1157 11.1106 16.9453 9 16.9453C6.88939 16.9453 4.89729 16.1157 3.39079 14.6092C1.88429 13.1027 1.05469 11.1106 1.05469 9C1.05469 6.88939 1.88429 4.89729 3.39079 3.39079C4.89729 1.88429 6.88939 1.05469 9 1.05469C11.1106 1.05469 13.1027 1.88429 14.6092 3.39079C16.1157 4.89729 16.9453 6.88939 16.9453 9C16.9453 11.1106 16.1157 13.1027 14.6092 14.6092Z" fill="#EC088D"/>
    <path d="M13.8634 4.13663C12.5561 2.82939 10.8289 2.10938 9 2.10938C7.17105 2.10938 5.44386 2.82939 4.13663 4.13663C2.82939 5.44386 2.10938 7.17105 2.10938 9C2.10938 10.8289 2.82939 12.5561 4.13663 13.8634C5.44386 15.1706 7.17105 15.8906 9 15.8906C10.8289 15.8906 12.5561 15.1706 13.8634 13.8634C15.1706 12.5561 15.8906 10.8289 15.8906 9C15.8906 7.17105 15.1706 5.44386 13.8634 4.13663ZM9.52734 10.0547V12.1641H8.47266V10.0547C8.47266 9.47461 7.99805 9 7.41797 9H6.89062V12.1641H5.83594V4.78125H7.41797C8.57812 4.78125 9.52734 5.73047 9.52734 6.89062C9.52734 7.52344 9.24252 8.09294 8.79964 8.47266C9.24252 8.85237 9.52734 9.42188 9.52734 10.0547ZM11.6367 11.1094H11.1094V13.2188H10.0547V7.94531H11.6367C12.5122 7.94531 13.2188 8.65201 13.2188 9.52734C13.2188 10.4027 12.5122 11.1094 11.6367 11.1094Z" fill="#EC088D"/>
  </g>
  <defs>
    <clipPath id="clip0_106_1249">
      <rect width="18" height="18" fill="white"/>
    </clipPath>
  </defs>
</svg>