<svg xmlns="http://www.w3.org/2000/svg" width="18" height="18" viewBox="0 0 18 18" fill="none">
  <path fill-rule="evenodd" clip-rule="evenodd" d="M2.03783 9.59216H0.52707C0.235932 9.59216 0 9.82809 0 10.1192V17.4626C0 17.7538 0.235932 17.9897 0.52707 17.9897H2.03783C2.32897 17.9897 2.5649 17.7538 2.5649 17.4626V10.1192C2.5649 9.82809 2.32897 9.59216 2.03783 9.59216Z" fill="#EC088D"/>
  <path fill-rule="evenodd" clip-rule="evenodd" d="M9.23013 1.53136L9.91101 1.86699V0H8.08398V1.86699L8.76486 1.53136C8.90645 1.4616 9.0777 1.4561 9.23013 1.53136Z" fill="#EC088D"/>
  <path fill-rule="evenodd" clip-rule="evenodd" d="M4.74617 9.55702H13.2492C13.5403 9.55702 13.7763 9.32109 13.7763 9.02995V0.52707C13.7763 0.235932 13.5403 0 13.2492 0H10.9654V2.71308C10.9654 3.00422 10.7293 3.24015 10.4383 3.24015C10.3411 3.24015 10.2499 3.21378 10.1718 3.16777L8.99775 2.58893L7.7898 3.18453C7.52942 3.31307 7.21411 3.20609 7.08571 2.94571C7.04877 2.87087 7.03133 2.79136 7.03133 2.71308H7.03009V0H4.74617C4.45517 0 4.21924 0.235932 4.21924 0.52707V9.02995C4.21924 9.32109 4.45517 9.55702 4.74617 9.55702Z" fill="#EC088D"/>
  <path fill-rule="evenodd" clip-rule="evenodd" d="M15.4898 11.6736L11.4931 12.7445C11.469 11.8354 10.7198 11.103 9.80723 11.103H3.62207V16.9991C5.87166 17.4243 8.13237 17.3256 10.1944 16.998C12.7708 16.5889 15.0238 15.8272 16.5515 15.2884C17.0471 15.1137 17.4654 14.8186 17.7216 14.4253C18.6515 12.9982 17.0831 11.1997 15.4898 11.6736Z" fill="#EC088D"/>
</svg>