<svg xmlns="http://www.w3.org/2000/svg" width="121" height="121" viewBox="0 0 121 121" fill="none">
  <g clip-path="url(#clip0_124_20)">
    <path d="M83.6414 38.2158L50.4168 71.4403L32.3172 53.3912L25.2085 60.4999L50.4168 85.7083L90.7502 45.3749L83.6414 38.2158ZM60.5002 10.0833C32.6702 10.0833 10.0835 32.6699 10.0835 60.4999C10.0835 88.3299 32.6702 110.917 60.5002 110.917C88.3302 110.917 110.917 88.3299 110.917 60.4999C110.917 32.6699 88.3302 10.0833 60.5002 10.0833ZM60.5002 100.833C38.216 100.833 20.1668 82.7841 20.1668 60.4999C20.1668 38.2158 38.216 20.1666 60.5002 20.1666C82.7843 20.1666 100.834 38.2158 100.834 60.4999C100.834 82.7841 82.7843 100.833 60.5002 100.833Z" fill="#67C57B"/>
  </g>
  <defs>
    <clipPath id="clip0_124_20">
      <rect width="121" height="121" fill="white"/>
    </clipPath>
  </defs>
</svg>